# xmcd
#
# Track frame offsets:
#	150
#	12202
#	29791
#	42555
#	58020
#	75965
#	89525
#	99657
#	110799
#	123066
#	136651
#	147553
#
# Disc length: 2227 seconds
# Revision: 0
# Processed by: cddbd v1.5.2PL0 Copyright (c) Steve Scherf et al.
# Submitted via: dBpowerAMP V12.0
#
DISCID=a308b10c
DTITLE=Old Crow Medicine Show - Carry Me Back
DYEAR=2012
DGENRE=Country
TTITLE0=Carry Me Back To Virginia
TTITLE1=We Don't Grow Tobacco
TTITLE2=Levi
TTITLE3=Bootlegger's Boy
TTITLE4=Ain't It Enough
TTITLE5=Mississippi Saturday Night
TTITLE6=Steppin' Out
TTITLE7=Genevieve
TTITLE8=Country Gal
TTITLE9=Half Mile Down
TTITLE10=Sewanee Mountain Catfight
TTITLE11=Ways Of Man
EXTD=
EXTT0=
EXTT1=
EXTT2=
EXTT3=
EXTT4=
EXTT5=
EXTT6=
EXTT7=
EXTT8=
EXTT9=
EXTT10=
EXTT11=
PLAYORDER=
